<svg width="72" height="72" viewBox="0 0 72 72" fill="none" xmlns="http://www.w3.org/2000/svg">
<circle cx="36" cy="36" r="36" fill="#FFF5E7"/>
<path d="M35.5586 21C31.6286 21 28.4336 24.195 28.4336 28.125C28.4336 31.98 31.4486 35.1 35.3786 35.235C35.4986 35.22 35.6186 35.22 35.7086 35.235C35.7386 35.235 35.7536 35.235 35.7836 35.235C35.7986 35.235 35.7986 35.235 35.8136 35.235C39.6536 35.1 42.6686 31.98 42.6836 28.125C42.6836 24.195 39.4886 21 35.5586 21ZM43.1799 39.2234C38.9949 36.4333 32.17 36.4333 27.955 39.2234C26.05 40.4984 25 42.2234 25 44.0684C25 45.9134 26.05 47.6234 27.94 48.8834C30.04 50.2934 32.7999 50.9983 35.5599 50.9983C38.3199 50.9983 41.0799 50.2934 43.1799 48.8834C45.0699 47.6083 46.1199 45.8983 46.1199 44.0383C46.1049 42.1933 45.0699 40.4834 43.1799 39.2234Z" fill="#FF970D"/>
</svg>
