<!-- Generated by IcoMoon.io -->
<svg version="1.1" xmlns="http://www.w3.org/2000/svg" width="210" height="32" viewBox="0 0 210 32">
<title>logo</title>
<path d="M210.287 3.203c0 1.698-1.414 3.076-3.15 3.076h-1.522v21.272c0 1.882-1.557 3.395-3.482 3.395s-3.482-1.513-3.482-3.395v-9.418c-0.12 0.174-0.235 0.347-0.367 0.521-0.091 0.129-0.189 0.252-0.293 0.381-6.078 8.168-17.138 11.838-24.544 11.916-7.675 0.084-12.29-3.966-12.29-3.966v-0.006c-0.357-0.252-0.695-0.527-1.022-0.812-3.275-2.829-4.919-6.527-4.919-11.082 0-3.35 0.931-6.28 2.799-8.796 0.591-0.801 1.286-1.558 2.068-2.275 3.206-2.952 6.74-3.871 11.589-3.871h2.752c0.867 0 1.659 0.347 2.223 0.902 0.568 0.549 0.925 1.322 0.925 2.163 0 1.698-1.414 3.076-3.148 3.076h-2.069c-1.883 0-3.038 0.331-3.476 0.487-1.166 0.465-2.211 1.149-3.125 1.994-1.775 1.653-2.659 3.742-2.659 6.23 0 0.415 0.017 0.812 0.069 1.199 0.011 0.073 0.017 0.135 0.029 0.202 0 0.028 0.005 0.050 0.011 0.078 0.012 0.090 0.035 0.185 0.052 0.274 0.017 0.112 0.040 0.213 0.069 0.319 0.035 0.146 0.075 0.297 0.122 0.448 0.040 0.162 0.091 0.319 0.149 0.476 0.114 0.347 0.568 1.244 0.643 1.367 1.201 2.078 3.671 4.207 8.716 4.633 0.218 0.017 0.448 0.034 0.677 0.045 3.65 0.19 7.055-0.656 10.056-1.994 0 0 0.011-0.006 0.034-0.011 0.523-0.224 7.205-3.193 11.709-9.614 0.006-0.006 0.597-0.964 0.603-0.969 0.587-0.902 0.431-0.751 0.908-1.703 0.539-1.064 1.058-2.207 1.551-3.457h-10.245c-1.74 0-3.154-1.378-3.154-3.076s1.414-3.070 3.154-3.070h18.886c1.74-0.011 3.154 1.361 3.154 3.059z"></path>
<path d="M26.274 20.834c-1.436-0.751-3.212-0.465-4.332 0.689-0.184 0.19-0.316 0.325-0.35 0.353-0.258 0.258-0.534 0.504-0.822 0.734-0.264 0.213-0.557 0.42-0.868 0.605-0.304 0.185-0.626 0.342-0.954 0.482-0.379 0.157-0.73 0.291-1.028 0.392-0.672 0.202-1.385 0.308-2.114 0.308-1.201 0-2.333-0.246-3.367-0.739-1.040-0.437-1.936-1.064-2.666-1.871-0.776-0.823-1.396-1.77-1.856-2.807-0.448-1.020-0.678-2.14-0.678-3.322 0-1.165 0.23-2.527 0.684-3.563 0.454-1.031 1.080-1.972 1.856-2.807 0.735-0.784 1.637-1.429 2.672-1.916 1.741-0.762 3.78-0.908 5.435-0.398 0.396 0.14 0.758 0.274 1.115 0.426 0.167 0.067 0.431 0.196 0.592 0.286 0.414 0.23 0.816 0.493 1.195 0.773 0.27 0.207 0.546 0.443 0.81 0.706 0.029 0.028 0.149 0.151 0.327 0.331 1.086 1.098 2.769 1.395 4.177 0.728 2.103-0.992 2.7-3.647 1.218-5.406-0.063-0.073-0.121-0.14-0.172-0.19-0.471-0.459-0.982-0.902-1.511-1.317-0.546-0.42-1.126-0.812-1.729-1.16-1.166-0.678-2.453-1.21-3.838-1.585-3.51-0.936-7.199-0.7-10.399 0.655-1.873 0.807-3.568 1.916-5.044 3.305-1.408 1.423-2.539 3.076-3.367 4.902-0.833 1.866-1.258 4.123-1.258 6.23s0.425 4.123 1.252 5.989c0.827 1.86 1.965 3.496 3.373 4.874 1.436 1.401 3.131 2.521 5.039 3.333 1.919 0.813 3.987 1.221 6.142 1.221 1.408 0 2.838-0.19 4.257-0.571 0.689-0.19 1.367-0.42 2.005-0.695 0.638-0.269 1.252-0.583 1.821-0.93 1.252-0.706 2.35-1.541 3.258-2.482 0.040-0.034 0.098-0.101 0.172-0.19 1.5-1.692 0.982-4.314-1.046-5.373z"></path>
<path d="M147.052 0.133c-1.925 0-3.482 1.518-3.482 3.395v24.034c0 1.877 1.557 3.395 3.482 3.395s3.482-1.518 3.482-3.395v-24.034c0-1.877-1.557-3.395-3.482-3.395z"></path>
<path d="M74.626 6.464c0.126-0.123 0.27-0.179 0.454-0.179h28.549c1.741 0 3.154-1.378 3.154-3.076 0-0.852-0.35-1.613-0.925-2.174s-1.362-0.902-2.229-0.902h-32.668c-1.919 0-3.482 1.524-3.482 2.997v24.034c0 1.339 0.391 2.179 1.023 2.796s1.505 0.997 2.459 0.997h32.668c1.741 0 3.154-1.384 3.154-3.076v-0.084c0-1.692-1.413-3.076-3.154-3.076h-28.543c-0.19 0-0.333-0.050-0.46-0.179-0.126-0.123-0.184-0.263-0.184-0.442v-4.779c0-0.179 0.057-0.319 0.184-0.442s0.27-0.179 0.46-0.179h28.543c1.741 0 3.154-1.148 3.154-2.84v-0.241c0-1.697-1.413-3.076-3.154-3.076h-28.911c-0.029-0.022-0.063-0.034-0.092-0.062-0.126-0.123-0.184-0.263-0.184-0.443v-5.132c0-0.179 0.057-0.314 0.184-0.443z"></path>
<path d="M133.511 20.576c1.465-0.784 2.677-1.866 3.602-3.216 1.184-1.686 1.781-4.23 1.781-6.594 0-1.529-0.264-2.964-0.781-4.286-0.264-0.644-0.586-1.261-0.959-1.815-0.379-0.571-0.822-1.104-1.316-1.574-0.948-0.896-2.091-1.63-3.436-2.202-1.344-0.499-2.832-0.756-4.424-0.756h-13.030c-1.919 0-3.476 1.524-3.476 3.395v24.029c0 0.941 0.391 1.787 1.017 2.398 0.632 0.616 1.5 0.997 2.459 0.997 1.925 0 3.482-1.518 3.482-3.395v-5.244c0-0.185 0.057-0.319 0.184-0.443 0.132-0.129 0.276-0.185 0.46-0.185h5.435c0.253 0 0.529 0.073 0.822 0.213 0.293 0.146 0.517 0.319 0.672 0.527l5.435 7.227c0.62 0.824 1.603 1.311 2.649 1.311 1.942 0 3.292-1.558 3.292-3.221 0-0.644-0.201-1.3-0.643-1.883-1.54-2.039-3.056-4.050-3.51-4.644-0.121-0.151-0.011-0.297 0-0.336 0.040-0.095 0.092-0.202 0.287-0.302zM131.586 13.136c-0.27 0.549-0.586 1.003-0.942 1.345-0.339 0.336-0.77 0.594-1.293 0.779-0.494 0.185-0.96 0.28-1.367 0.28h-8.905c-0.184 0-0.327-0.056-0.454-0.179-0.132-0.123-0.19-0.263-0.19-0.448v-8c0-0.185 0.057-0.319 0.184-0.443 0.132-0.129 0.276-0.185 0.46-0.185h8.905c0.856 0 1.551 0.157 2.068 0.465 0.517 0.319 0.913 0.7 1.166 1.109 0.126 0.252 0.241 0.504 0.345 0.768 0.092 0.235 0.161 0.487 0.213 0.756 0.103 0.493 0.155 0.964 0.155 1.395 0.006 0.768-0.115 1.888-0.345 2.359z"></path>
<path d="M59.326 0.133c-1.925 0-3.482 1.518-3.482 3.395v9.020h-16.024v-9.020c0-1.877-1.557-3.395-3.482-3.395s-3.482 1.518-3.482 2.717v24.035c0 2.555 1.557 4.073 3.482 4.073s3.482-1.518 3.482-3.395v-8.863h16.024v8.863c0 1.877 1.557 3.395 3.482 3.395s3.482-1.518 3.482-4.073v-24.040c0-1.193-1.563-2.712-3.482-2.712z"></path>
</svg>
