<svg width="294" height="45" viewBox="0 0 294 45" fill="none" xmlns="http://www.w3.org/2000/svg">
<path d="M294 5.14714C294 7.52046 292.024 9.44732 289.598 9.44732H287.469V39.1883C287.469 41.8201 285.293 43.9349 282.602 43.9349C279.911 43.9349 277.734 41.8201 277.734 39.1883V26.0214C277.565 26.2642 277.405 26.507 277.22 26.7499C277.091 26.93 276.955 27.1023 276.81 27.2825C268.312 38.7026 252.849 43.8331 242.495 43.9427C231.764 44.0602 225.313 38.3972 225.313 38.3972V38.3893C224.815 38.0368 224.342 37.653 223.884 37.2536C219.305 33.298 217.008 28.1284 217.008 21.7604C217.008 17.0764 218.309 12.9799 220.92 9.46298C221.747 8.3429 222.719 7.28548 223.811 6.28289C228.294 2.15503 233.234 0.870457 240.013 0.870457H243.861C245.074 0.870457 246.182 1.35609 246.969 2.13153C247.764 2.89914 248.263 3.98006 248.263 5.15497C248.263 7.52829 246.287 9.45515 243.861 9.45515H240.969C238.334 9.45515 236.72 9.91728 236.109 10.1366C234.479 10.7867 233.017 11.7423 231.74 12.9251C229.257 15.2357 228.02 18.1573 228.02 21.6351C228.02 22.2147 228.045 22.7708 228.117 23.3113C228.133 23.4131 228.141 23.4993 228.157 23.5933C228.157 23.6324 228.165 23.6638 228.173 23.7029C228.189 23.8282 228.221 23.9614 228.245 24.0867C228.269 24.2434 228.302 24.3844 228.342 24.5332C228.39 24.7368 228.446 24.9483 228.51 25.1598C228.567 25.387 228.639 25.6063 228.719 25.8256C228.88 26.3112 229.515 27.5645 229.619 27.7368C231.298 30.6427 234.752 33.6192 241.804 34.2145C242.11 34.238 242.431 34.2615 242.752 34.2771C247.853 34.5434 252.616 33.3607 256.809 31.4887C256.809 31.4887 256.825 31.4808 256.857 31.473C257.588 31.1597 266.93 27.0083 273.228 18.032C273.236 18.0242 274.063 16.6848 274.071 16.6769C274.89 15.4159 274.674 15.6274 275.34 14.2958C276.095 12.8076 276.818 11.2097 277.509 9.46298H263.187C260.753 9.46298 258.777 7.53612 258.777 5.1628C258.777 2.78948 260.753 0.870457 263.187 0.870457H289.59C292.024 0.854791 294 2.77381 294 5.14714Z" fill="white"/>
<path d="M36.7329 29.7958C34.7248 28.7462 32.2427 29.1457 30.6764 30.7592C30.4193 31.0255 30.2346 31.2135 30.1864 31.2527C29.8249 31.613 29.4393 31.9576 29.0377 32.2788C28.6682 32.5764 28.2586 32.8662 27.8248 33.1247C27.3991 33.3832 26.9492 33.6025 26.4914 33.7983C25.9612 34.0176 25.4713 34.2056 25.0536 34.3466C24.1138 34.6286 23.1177 34.7774 22.0976 34.7774C20.4188 34.7774 18.8364 34.4328 17.3905 33.7435C15.9366 33.1325 14.6835 32.2553 13.6634 31.1274C12.579 29.9759 11.7115 28.6522 11.0689 27.2032C10.4423 25.7776 10.121 24.211 10.121 22.5583C10.121 20.9291 10.4423 19.0258 11.0769 17.5767C11.7115 16.1355 12.587 14.8196 13.6714 13.6525C14.6996 12.5559 15.9607 11.6552 17.4066 10.9737C19.8404 9.90845 22.692 9.7048 25.0054 10.4176C25.5596 10.6134 26.0657 10.8014 26.5637 11.0129C26.7966 11.1069 27.1661 11.287 27.391 11.4123C27.9694 11.7335 28.5317 12.1016 29.0618 12.4933C29.4393 12.7831 29.8249 13.112 30.1944 13.4802C30.2346 13.5193 30.4032 13.6917 30.6523 13.9423C32.1704 15.4775 34.524 15.8927 36.4919 14.9606C39.4318 13.5742 40.2672 9.86145 38.1948 7.40197C38.1065 7.30014 38.0261 7.20615 37.9539 7.13566C37.2952 6.49337 36.5803 5.87458 35.8413 5.29496C35.0782 4.7075 34.2669 4.15921 33.4235 3.67358C31.7929 2.72582 29.9936 1.98171 28.0577 1.45691C23.1498 0.148845 17.9929 0.477821 13.5188 2.37335C10.9002 3.50126 8.53058 5.05215 6.46621 6.99467C4.49823 8.98418 2.91582 11.2948 1.75913 13.8483C0.59441 16.4566 0 19.6132 0 22.5583C0 25.5035 0.59441 28.3232 1.7511 30.9315C2.90779 33.532 4.49823 35.8192 6.46621 37.746C8.47435 39.7042 10.844 41.2708 13.5108 42.4065C16.1936 43.5423 19.0854 44.1141 22.0976 44.1141C24.0656 44.1141 26.0657 43.8477 28.0497 43.3151C29.0136 43.0488 29.9615 42.7277 30.8531 42.3439C31.7447 41.9679 32.6042 41.5293 33.3994 41.0436C35.1505 40.0567 36.6847 38.8896 37.9539 37.5737C38.0101 37.5267 38.0904 37.4327 38.1948 37.3074C40.2913 34.9419 39.5684 31.2762 36.7329 29.7958Z" fill="white"/>
<path d="M205.594 0.85498C202.903 0.85498 200.726 2.97765 200.726 5.60162V39.2041C200.726 41.8281 202.903 43.9508 205.594 43.9508C208.285 43.9508 210.462 41.8281 210.462 39.2041V5.60162C210.462 2.97765 208.285 0.85498 205.594 0.85498Z" fill="white"/>
<path d="M104.335 9.70599C104.512 9.53366 104.713 9.45534 104.97 9.45534H144.884C147.318 9.45534 149.294 7.52848 149.294 5.15516C149.294 3.96458 148.804 2.89933 148 2.11605C147.197 1.33278 146.097 0.85498 144.884 0.85498H99.2105C96.5276 0.85498 94.3428 2.98549 94.3428 5.0455V38.648C94.3428 40.52 94.889 41.6949 95.7726 42.5565C96.6562 43.4181 97.8771 43.9508 99.2105 43.9508H144.884C147.318 43.9508 149.294 42.0161 149.294 39.6506V39.5331C149.294 37.1676 147.318 35.2329 144.884 35.2329H104.978C104.713 35.2329 104.512 35.1624 104.335 34.9823C104.159 34.8099 104.078 34.6141 104.078 34.3635V27.6821C104.078 27.4315 104.159 27.2357 104.335 27.0634C104.512 26.891 104.713 26.8127 104.978 26.8127H144.884C147.318 26.8127 149.294 25.207 149.294 22.8415V22.5047C149.294 20.1314 147.318 18.2045 144.884 18.2045H104.464C104.424 18.1732 104.375 18.1575 104.335 18.1184C104.159 17.946 104.078 17.7502 104.078 17.4996V10.3248C104.078 10.0741 104.159 9.88614 104.335 9.70599Z" fill="white"/>
<path d="M186.661 29.4367C188.709 28.3401 190.404 26.8284 191.697 24.9407C193.352 22.583 194.188 19.027 194.188 15.7215C194.188 13.5832 193.818 11.578 193.095 9.72948C192.726 8.82872 192.276 7.96711 191.754 7.19167C191.224 6.39273 190.605 5.64862 189.914 4.99067C188.589 3.73743 186.99 2.71134 185.111 1.9124C183.231 1.21529 181.151 0.85498 178.926 0.85498H160.708C158.025 0.85498 155.848 2.98549 155.848 5.60162V39.1963C155.848 40.5122 156.394 41.6949 157.27 42.5487C158.153 43.4103 159.366 43.9429 160.708 43.9429C163.399 43.9429 165.576 41.8202 165.576 39.1963V31.8648C165.576 31.6063 165.656 31.4184 165.833 31.246C166.017 31.0659 166.218 30.9876 166.475 30.9876H174.074C174.427 30.9876 174.813 31.0894 175.223 31.2852C175.632 31.4889 175.946 31.7317 176.162 32.0215L183.761 42.1257C184.629 43.2771 186.002 43.9586 187.464 43.9586C190.179 43.9586 192.067 41.7811 192.067 39.4548C192.067 38.554 191.786 37.6376 191.167 36.823C189.015 33.9718 186.894 31.1599 186.259 30.3296C186.091 30.1181 186.243 29.9145 186.259 29.8596C186.316 29.7265 186.388 29.5777 186.661 29.4367ZM183.97 19.0348C183.593 19.8024 183.151 20.4368 182.653 20.9146C182.179 21.3846 181.576 21.7449 180.845 22.0034C180.155 22.2619 179.504 22.395 178.934 22.395H166.483C166.226 22.395 166.025 22.3167 165.849 22.1444C165.664 21.9721 165.584 21.7762 165.584 21.5178V10.3326C165.584 10.0741 165.664 9.88614 165.841 9.71382C166.025 9.53366 166.226 9.45534 166.483 9.45534H178.934C180.131 9.45534 181.103 9.67465 181.825 10.1055C182.548 10.5519 183.103 11.0845 183.456 11.6563C183.633 12.0088 183.793 12.3613 183.938 12.7294C184.067 13.0584 184.163 13.4109 184.235 13.7868C184.38 14.4761 184.452 15.1341 184.452 15.7372C184.46 16.8103 184.291 18.3768 183.97 19.0348Z" fill="white"/>
<path d="M82.9445 0.85498C80.2536 0.85498 78.0768 2.97765 78.0768 5.60162V18.2123H55.6739V5.60162C55.6739 2.97765 53.4971 0.85498 50.8062 0.85498C48.1153 0.85498 45.9385 2.97765 45.9385 4.65386V38.2563C45.9385 41.8281 48.1153 43.9508 50.8062 43.9508C53.4971 43.9508 55.6739 41.8281 55.6739 39.2041V26.8127H78.0768V39.2041C78.0768 41.8281 80.2536 43.9508 82.9445 43.9508C85.6354 43.9508 87.8122 41.8281 87.8122 38.2563V4.64603C87.8122 2.97765 85.6274 0.85498 82.9445 0.85498Z" fill="white"/>
</svg>
