<svg width="86" height="78" viewBox="0 0 86 78" fill="none" xmlns="http://www.w3.org/2000/svg">
<g clip-path="url(#clip0_2058_493)">
<path d="M72.3867 23.6592C73.7547 23.1813 74.5458 22.2417 74.7683 20.8486C75.2545 22.1932 76.2104 22.9707 77.6278 23.1894C76.2599 23.6673 75.4687 24.6069 75.2462 26C74.76 24.6555 73.8206 23.886 72.3867 23.6592Z" fill="#272425"/>
<path d="M75.5098 13.243C78.2539 12.3034 79.8361 10.4405 80.2729 7.61371C81.2371 10.2947 83.1407 11.8498 86.0002 12.2953C83.2725 13.243 81.6903 15.114 81.2371 17.9246C80.2811 15.2274 78.3693 13.6642 75.5098 13.243Z" fill="#272425"/>
<path d="M15.7148 16.8554C18.459 15.9159 20.0412 14.053 20.478 11.2262C21.4421 13.9072 23.3457 15.4623 26.2053 15.9078C23.4776 16.8554 21.8954 18.7265 21.4421 21.5371C20.4862 18.848 18.5744 17.2766 15.7148 16.8554Z" fill="#272425"/>
<path d="M30.4743 25.271C29.9469 23.2461 28.6696 21.9907 26.6094 21.4723C28.6696 20.9539 29.9469 19.6984 30.4743 17.6735C30.9852 19.7065 32.2707 20.962 34.3392 21.4723C32.279 21.9664 30.9852 23.238 30.4743 25.271Z" fill="#272425"/>
<path d="M52.6003 71.1234C51.9576 71.1234 51.2818 71.0748 50.5649 70.9857C45.3897 70.362 39.3822 65.4941 37.9648 63.1614L38.6735 62.7483C39.8684 64.7246 45.6369 69.5763 50.6638 70.1838C55.4928 70.767 58.3688 69.6654 59.7121 62.2137C59.778 60.2455 60.8822 59.1115 61.6981 58.2853C62.5304 57.4349 62.7694 57.1352 62.242 56.4953L62.1925 56.4224C61.6239 55.3047 59.3083 55.2237 58.8468 55.3776L58.5666 54.6162C59.3824 54.3084 60.2807 54.3246 61.1459 54.3408C62.8847 54.3651 63.956 54.3003 64.4505 52.729C64.6565 52.0729 64.2444 51.7489 63.3215 51.2224C62.8106 50.9227 62.3244 50.6473 62.1101 50.2019C61.9371 49.8455 61.9123 49.2461 62.2337 48.7358C62.4892 48.3227 63.0578 47.8125 64.3104 47.7639L64.6812 47.7963C66.3458 47.942 67.1781 48.0149 69.0076 47.61C69.329 47.4642 69.5679 47.205 69.6668 46.8324C69.8646 46.0953 69.4773 44.9695 68.6615 43.8922C66.5766 41.1626 64.9367 38.1252 64.4752 37.0885C62.9095 33.5975 62.8435 31.3215 62.7529 28.4461C62.7364 27.7657 62.7117 27.0449 62.6705 26.2673C62.6458 25.8461 62.7694 25.1576 62.9342 24.2019C63.6182 20.3059 65.052 12.2062 60.0664 4.07414L60.7751 3.65295C65.9173 12.0442 64.4505 20.3464 63.75 24.3396C63.5934 25.2062 63.4781 25.8947 63.4945 26.2268C63.5358 27.0125 63.5605 27.7414 63.577 28.4299C63.6676 31.3296 63.7253 33.4274 65.2251 36.7726C65.6619 37.7445 67.2935 40.7657 69.3207 43.4143C70.3014 44.7022 70.7299 46.0548 70.4662 47.043C70.3014 47.6505 69.8893 48.1121 69.2713 48.3794C67.2358 48.8411 66.3046 48.7601 64.6153 48.6062L64.3021 48.5819C63.6594 48.6143 63.1732 48.8168 62.9507 49.1732C62.7776 49.4486 62.8106 49.7483 62.8765 49.8779C62.9836 50.0966 63.3792 50.3234 63.7583 50.542C64.5658 51.0118 65.6783 51.6517 65.2498 52.9882C64.6812 54.8025 63.3792 55.1184 62.0524 55.167C62.415 55.3857 62.7199 55.6692 62.9095 56.0336C63.8819 57.2405 63.0743 58.0667 62.2914 58.8604C61.5333 59.6299 60.5938 60.5938 60.5279 62.3109C59.2918 69.2361 56.5724 71.1153 52.6003 71.1234Z" fill="#272425"/>
<path d="M43.8408 26.2106C45.044 27.1097 46.14 28.0654 47.3019 28.843C48.4639 29.6287 49.6835 30.2604 50.969 30.6573C52.2546 31.0542 53.6061 31.2081 54.9905 31.1433C56.3914 31.1028 57.7759 30.7302 59.2674 30.4467C58.0808 31.3377 56.7128 32.0991 55.1718 32.3907C53.6473 32.7146 51.9991 32.6822 50.4746 32.1963C48.9501 31.7265 47.5903 30.8517 46.4861 29.8069C45.3736 28.762 44.5083 27.5309 43.8408 26.2106Z" fill="#272425"/>
<path d="M45.5545 28.2274C43.5355 28.6 42.2994 29.1508 40.5029 28.4947C42.9092 29.4829 45.0518 29.3533 45.8347 28.9969C46.6175 28.6405 45.5545 28.2274 45.5545 28.2274Z" fill="#272425"/>
<path d="M48.4969 30.5358C46.4779 30.9084 45.2418 31.4592 43.4453 30.8031C45.8516 31.7913 47.9942 31.6617 48.777 31.3053C49.5599 30.9408 48.4969 30.5358 48.4969 30.5358Z" fill="#272425"/>
<path d="M53.9605 0.599397C56.1443 11.0399 48.5463 19.3421 39.9266 24.1614C32.3945 28.3732 23.4534 30.2767 16.3664 35.2337C12.0812 38.2305 8.48002 43.1471 9.6502 48.5657C10.738 53.5714 15.1055 57.1433 20.1901 57.6455C20.8164 57.7103 20.8164 56.7464 20.1901 56.6816C15.5505 56.22 11.5373 52.8829 10.5979 48.3147C9.71613 44.0299 12.1059 40.0125 15.2786 37.2829C21.2202 32.1558 29.6257 30.2443 36.6468 26.9315C47.1207 21.9826 57.5452 12.9757 54.9082 0.356406C54.7845 -0.25917 53.8369 1.98742e-05 53.9605 0.599397Z" fill="#272425"/>
<path d="M58.8959 2.53522C66.2054 10.9022 68.0431 22.6872 63.5849 32.8119C63.3377 33.3788 64.1782 33.8648 64.4337 33.2978C69.0732 22.7439 67.2108 10.5701 59.5881 1.84675C59.1761 1.37697 58.4839 2.06544 58.8959 2.53522Z" fill="#272425"/>
<path d="M64.9447 0.785666C69.3699 9.33894 73.3502 20.0467 66.4775 28.5271C66.0901 29.005 66.7741 29.6935 67.1697 29.2075C74.3473 20.3626 70.4659 9.32274 65.7935 0.299685C65.505 -0.259194 64.6563 0.226788 64.9447 0.785666Z" fill="#272425"/>
<path d="M35.5257 77.595H13.8197C11.2651 77.595 3.04913 70.3782 2.08497 63.6312L0.412109 47.2941C0.412109 45.739 1.68942 44.4835 3.27163 44.4835H45.8349C47.4171 44.4835 48.6944 45.739 48.6944 47.2941L47.5737 63.7203C46.0574 70.1433 38.6407 77.595 35.5257 77.595Z" fill="white"/>
<path d="M35.5257 78H13.8197C10.886 78 2.62878 70.362 1.6811 63.6879L0 47.3346C0 45.5203 1.46685 44.0785 3.27156 44.0785H45.8348C47.6395 44.0785 49.1064 45.5203 49.1064 47.2941L47.9856 63.7446C46.4611 70.2486 39.0362 78 35.5257 78ZM3.27156 44.8885C1.92008 44.8885 0.824071 45.9658 0.824071 47.2941L2.50517 63.5988C3.42813 70.119 11.4711 77.1901 13.8197 77.1901H35.5257C38.3934 77.1901 45.703 69.8679 47.178 63.6231L48.2823 47.2617C48.2823 45.9657 47.1863 44.8804 45.8348 44.8804H3.27156V44.8885Z" fill="black"/>
<path d="M43.0651 36.4405L41.9938 35.6711C41.3181 35.1851 33.2092 33.5975 24.5895 33.5975C15.9697 33.5975 10.0034 34.934 10.0034 34.934C9.10517 34.934 6.12204 36.6349 6.12204 36.6349C5.32269 37.1776 4.84473 38.0686 4.84473 39.0243V44.4916H44.5402V39.2835C44.5484 38.1577 43.9963 37.1047 43.0651 36.4405Z" fill="white"/>
<path d="M44.961 44.8885H4.44141V39.0162C4.44141 37.9309 4.98529 36.9103 5.89177 36.2947C6.42742 35.9869 8.95731 34.5776 9.95444 34.529C10.4983 34.4156 16.3904 33.1925 24.5899 33.1925C32.8801 33.1925 41.3598 34.7234 42.2333 35.3471L43.3046 36.1165C44.3347 36.8536 44.9527 38.0361 44.9527 39.2916V44.8885H44.961ZM5.26548 44.0785H44.1369V39.2835C44.1369 38.2872 43.6507 37.3477 42.8266 36.7645L41.7553 35.995C41.1373 35.5981 33.2015 33.9944 24.5982 33.9944C16.135 33.9944 10.1605 35.3066 10.1028 35.3147L10.0121 35.3228C9.46824 35.3228 7.53991 36.2866 6.33677 36.967C5.67751 37.4125 5.26548 38.1819 5.26548 39V44.0785V44.0785Z" fill="black"/>
<path d="M44.8621 44.8561H4.44141V42.2075H44.8621V44.8561ZM5.26548 44.0461H44.038V43.0175H5.26548V44.0461Z" fill="black"/>
<path d="M35.8136 68.81H13.2753C13.0446 68.81 12.8633 68.6318 12.8633 68.405C12.8633 68.1782 13.0446 68 13.2753 68H35.8136C36.0444 68 36.2257 68.1782 36.2257 68.405C36.2257 68.6318 36.0444 68.81 35.8136 68.81Z" fill="#272425"/>
<path d="M25.2985 71.1832H13.2753C13.0446 71.1832 12.8633 71.005 12.8633 70.7782C12.8633 70.5514 13.0446 70.3732 13.2753 70.3732H25.2985C25.5292 70.3732 25.7105 70.5514 25.7105 70.7782C25.7105 71.005 25.5292 71.1832 25.2985 71.1832Z" fill="#272425"/>
<path d="M24.167 62C23.1244 62 22.2095 61.7769 21.4225 61.3306C20.6457 60.8843 20.0477 60.2453 19.6286 59.4136C19.2095 58.5818 19 57.6081 19 56.4924C19 55.3767 19.2095 54.408 19.6286 53.5864C20.0477 52.7547 20.6457 52.1157 21.4225 51.6694C22.2095 51.2231 23.1244 51 24.167 51C24.8416 51 25.4753 51.1014 26.0681 51.3043C26.661 51.497 27.1874 51.781 27.6474 52.1563C27.7802 52.2577 27.8722 52.3642 27.9233 52.4758C27.9744 52.5874 28 52.7243 28 52.8866C28 53.1097 27.9387 53.2974 27.816 53.4495C27.6934 53.6017 27.5451 53.6777 27.3714 53.6777C27.167 53.6777 26.9574 53.6067 26.7428 53.4647C26.3032 53.1402 25.8944 52.917 25.5162 52.7953C25.138 52.6634 24.7189 52.5975 24.2589 52.5975C23.1959 52.5975 22.3884 52.9272 21.8365 53.5864C21.2947 54.2457 21.0239 55.2144 21.0239 56.4924C21.0239 57.7805 21.2947 58.7543 21.8365 59.4136C22.3884 60.0728 23.1959 60.4025 24.2589 60.4025C24.6985 60.4025 25.1022 60.3366 25.4702 60.2047C25.8484 60.0728 26.2726 59.8497 26.7428 59.5353C26.845 59.4744 26.9472 59.4237 27.0494 59.3831C27.1516 59.3426 27.2589 59.3223 27.3714 59.3223C27.5451 59.3223 27.6934 59.3983 27.816 59.5505C27.9387 59.7026 28 59.8903 28 60.1134C28 60.2656 27.9744 60.4025 27.9233 60.5242C27.8722 60.6358 27.7802 60.7423 27.6474 60.8437C27.1874 61.219 26.661 61.5081 26.0681 61.7109C25.4753 61.9036 24.8416 62 24.167 62Z" fill="black"/>
</g>
<defs>
<clipPath id="clip0_2058_493">
<rect width="86" height="78" fill="white"/>
</clipPath>
</defs>
</svg>
